<svg width="90" height="112" viewBox="0 0 90 112" fill="none" xmlns="http://www.w3.org/2000/svg">
<ellipse cx="43.5" cy="54" rx="33.5" ry="47" fill="black"/>
<path d="M15.2126 97.4267C23.2702 106.663 33.6471 111.602 44.7528 111.578C45.9658 111.575 47.1906 111.513 48.4192 111.392C61.8466 110.056 73.208 103.277 80.4083 92.3009C87.6482 81.2653 90.5668 66.4464 88.8474 49.4454C87.3089 34.2301 81.761 21.4817 72.8053 12.5771C63.8057 3.63503 51.9608 -0.607056 39.434 0.6366C26.5951 1.91248 15.5942 9.00373 8.45697 20.6009C1.73979 31.519 -1.1263 45.7918 0.389856 60.7884C1.84093 75.1227 7.10505 88.1358 15.2126 97.4267ZM18.0821 26.419C21.7993 20.3786 28.715 12.9335 40.5579 11.7564C41.6156 11.6516 42.6614 11.5981 43.6954 11.5958C51.6772 11.5784 58.9299 14.6102 64.8227 20.468C65.0619 20.706 65.2752 20.9796 65.5084 21.2255L27.2645 93.6273C25.9337 92.475 24.7519 91.279 23.7392 90.1181C17.1368 82.5508 12.83 71.7396 11.6105 59.6737C10.3362 47.0816 12.635 35.2723 18.0821 26.419Z" fill="white"/>
<path d="M28.7453 52.4266C25.5147 51.3665 22.8968 49.1614 21.2728 46.16C21.0954 45.8322 20.9294 45.494 20.776 45.1477C19.1023 41.361 18.9387 37.4749 20.3167 34.2053C21.7019 30.9178 24.5603 28.3401 28.5831 26.7512C32.1833 25.329 35.8246 25.2873 39.1135 26.6299C42.4171 27.9798 45.0958 30.6655 46.6579 34.1979C48.2586 37.8184 48.2999 41.6449 46.7751 44.9725C45.3392 48.1046 42.5942 50.6021 39.0458 52.0039C35.6538 53.3432 31.9954 53.4935 28.7453 52.4266ZM44.0725 43.0764C44.8668 41.3433 45.5033 38.577 44.0268 35.2373C43.8949 34.9391 43.7533 34.6503 43.6021 34.3708C42.4349 32.2137 40.6984 30.6217 38.5346 29.7381C38.4467 29.7023 38.3548 29.6777 38.266 29.6444L27.8197 48.7138C28.2705 48.934 28.7091 49.1086 29.1152 49.2419C31.7622 50.1106 34.7918 49.9677 37.6467 48.8398C40.6264 47.6631 42.9082 45.6163 44.0725 43.0764Z" fill="white"/>
<path fill-rule="evenodd" clip-rule="evenodd" d="M64.1315 78L53.5658 59L43 78H64.1315ZM48 75.8889L54 64L60.6829 75.8889H48Z" fill="black"/>
<rect x="67" y="59" width="14" height="3" rx="1" fill="black"/>
<rect width="17" height="2" rx="1" transform="matrix(1.14858e-08 -1 -1 -1.23807e-08 75 77)" fill="black"/>
<rect x="67" y="74" width="14" height="4" rx="1" fill="black"/>
</svg>
