<svg width="90" height="112" viewBox="0 0 90 112" fill="none" xmlns="http://www.w3.org/2000/svg">
<ellipse cx="43.5" cy="54" rx="33.5" ry="47" fill="white"/>
<path d="M15.2126 97.4267C23.2702 106.663 33.6471 111.602 44.7528 111.578C45.9658 111.575 47.1906 111.513 48.4192 111.392C61.8466 110.056 73.208 103.277 80.4083 92.3009C87.6482 81.2653 90.5668 66.4464 88.8474 49.4454C87.3089 34.2301 81.761 21.4817 72.8053 12.5771C63.8057 3.63503 51.9608 -0.607056 39.434 0.6366C26.5951 1.91248 15.5942 9.00373 8.45697 20.6009C1.73979 31.519 -1.1263 45.7918 0.389856 60.7884C1.84093 75.1227 7.10505 88.1358 15.2126 97.4267ZM18.0821 26.419C21.7993 20.3786 28.715 12.9335 40.5579 11.7564C41.6156 11.6516 42.6614 11.5981 43.6954 11.5958C51.6772 11.5784 58.9299 14.6102 64.8227 20.468C65.0619 20.706 65.2752 20.9796 65.5084 21.2255L27.2645 93.6273C25.9337 92.475 24.7519 91.279 23.7392 90.1181C17.1368 82.5508 12.83 71.7396 11.6105 59.6737C10.3362 47.0816 12.635 35.2723 18.0821 26.419Z" fill="black"/>
<path d="M28.4699 53.1616C25.0556 52.0412 22.2887 49.7105 20.5723 46.5384C20.3848 46.192 20.2094 45.8346 20.0472 45.4686C18.2783 41.4665 18.1055 37.3593 19.5618 33.9037C21.0259 30.4292 24.0468 27.7049 28.2984 26.0255C32.1035 24.5225 35.9519 24.4784 39.4279 25.8974C42.9194 27.3241 45.7505 30.1625 47.4014 33.8958C49.0933 37.7223 49.1369 41.7665 47.5253 45.2834C46.0077 48.5937 43.1066 51.2333 39.3564 52.7148C35.7714 54.1303 31.9049 54.2892 28.4699 53.1616ZM44.669 43.2794C45.5085 41.4477 46.1812 38.5241 44.6207 34.9944C44.4813 34.6792 44.3316 34.374 44.1718 34.0786C42.9382 31.7988 41.1029 30.1162 38.8161 29.1824C38.7232 29.1445 38.626 29.1185 38.5322 29.0834L27.4916 49.2376C27.9681 49.4703 28.4317 49.6548 28.8608 49.7956C31.6584 50.7138 34.8604 50.5628 37.8777 49.3707C41.0268 48.1271 43.4385 45.9638 44.669 43.2794Z" fill="black"/>
<path fill-rule="evenodd" clip-rule="evenodd" d="M64.1315 78L53.5658 59L43 78H64.1315ZM48 75.8889L54 64L60.6829 75.8889H48Z" fill="white"/>
<rect x="67" y="59" width="14" height="3" rx="1" fill="white"/>
<rect width="17" height="2" rx="1" transform="matrix(1.14858e-08 -1 -1 -1.23807e-08 75 77)" fill="white"/>
<rect x="67" y="74" width="14" height="4" rx="1" fill="white"/>
</svg>
