<svg width="55" height="45" viewBox="0 0 55 45" fill="none" xmlns="http://www.w3.org/2000/svg">
<path fill-rule="evenodd" clip-rule="evenodd" d="M41.1337 15L32.5668 0L24 15H41.1337ZM29.5 13.3333L32.9189 3.94737L38.3375 13.3333L29.5 13.3333Z" fill="black"/>
<path d="M42 0.5C42 0.223858 42.2239 0 42.5 0H52.5C52.7761 0 53 0.223858 53 0.5V2.5C53 2.77614 52.7761 3 52.5 3H42.5C42.2239 3 42 2.77614 42 2.5V0.5Z" fill="black"/>
<path d="M47.5 15C47.2239 15 47 14.7761 47 14.5V0.5C47 0.223858 47.2239 -1.24272e-07 47.5 -1.24272e-07V-1.24272e-07C47.7761 -1.24272e-07 48 0.223858 48 0.5V14.5C48 14.7761 47.7761 15 47.5 15V15Z" fill="black"/>
<rect x="42" y="13" width="11" height="2" rx="0.5" fill="black"/>
<path d="M10.681 43.8152C7.13172 42.466 4.32494 39.871 2.66793 36.4391C2.48695 36.0642 2.31921 35.6785 2.16589 35.2842C0.493978 30.9736 0.511831 26.63 2.21755 23.0535C3.93236 19.4576 7.25393 16.7293 11.8235 15.1641C15.9131 13.7632 19.9774 13.9044 23.5771 15.5716C27.1929 17.2478 30.0427 20.382 31.6033 24.4031C33.2024 28.5245 33.0512 32.7954 31.1786 36.4289C29.4153 39.849 26.2244 42.4937 22.1937 43.8745C18.3406 45.1938 14.2517 45.1729 10.681 43.8152ZM28.2615 34.1744C29.2369 32.282 30.0896 29.2288 28.6146 25.4271C28.4828 25.0876 28.3397 24.7581 28.1854 24.4385C26.9945 21.9719 25.1394 20.1064 22.7712 19.0092C22.675 18.9647 22.5736 18.9326 22.4763 18.8909L9.83979 39.6256C10.3314 39.8944 10.8117 40.1118 11.2578 40.2814C14.1659 41.3869 17.553 41.3838 20.796 40.2726C24.1807 39.1136 26.8317 36.9478 28.2615 34.1744Z" fill="black"/>
</svg>
