<svg width="42" height="46" viewBox="0 0 42 46" fill="none" xmlns="http://www.w3.org/2000/svg">
<path fill-rule="evenodd" clip-rule="evenodd" d="M41.1337 15L32.5668 0L24 15H41.1337ZM29 13.3333L32.9189 3.94737L38.3375 13.3333L29 13.3333Z" fill="black"/>
<path d="M36.2021 2.69831C36.3016 2.69142 36.3984 2.7077 36.4923 2.74715C36.5904 2.79178 36.6627 2.83569 36.7092 2.87886C36.768 2.93759 36.8248 3.01254 36.8797 3.10371C36.9826 3.30403 37.0202 3.52003 36.9925 3.75171C36.9709 3.93242 36.8861 4.05152 36.7382 4.10902C36.5852 4.1706 36.4415 4.15341 36.3073 4.05744C36.1725 3.96611 36.1183 3.83037 36.1446 3.65021C36.1625 3.53956 36.2109 3.44901 36.2899 3.37856C36.3666 3.32664 36.4478 3.29641 36.5334 3.28786C36.5669 3.28247 36.586 3.28006 36.5906 3.28061L36.5136 3.15859L36.5075 3.15081C36.4289 3.0615 36.3442 3.02316 36.2533 3.03579C36.1244 3.05325 35.9722 3.22538 35.7967 3.55218C35.5972 3.9231 35.3621 4.51301 35.0914 5.3219C34.8737 5.96323 34.6292 6.74941 34.3579 7.68044L34.1385 8.39443L34.1002 8.53789C34.0996 8.54253 34.1232 8.56179 34.1708 8.5957C34.2533 8.65257 34.3495 8.73223 34.4595 8.83469C34.7097 9.09965 34.872 9.41282 34.9463 9.7742C34.9843 9.96676 34.9909 10.1673 34.9659 10.3758C34.9409 10.5843 34.8872 10.7776 34.8048 10.9558C34.6554 11.2622 34.465 11.4979 34.2337 11.6629C33.8826 11.9264 33.4821 12.0523 33.0323 12.0408C32.9808 12.0393 32.9527 12.0383 32.9481 12.0378L32.8617 12.2883C32.3928 13.614 31.9981 14.6736 31.6775 15.4671C31.2791 16.4393 30.9027 17.071 30.5483 17.3623C30.4139 17.4637 30.2979 17.5297 30.2003 17.5603C29.9264 17.6498 29.685 17.6044 29.4763 17.4243C29.4175 17.3656 29.3607 17.2907 29.3058 17.1995C29.2029 16.9992 29.1653 16.7832 29.193 16.5515C29.2208 16.3198 29.3442 16.1912 29.5635 16.1658C29.6734 16.1507 29.7783 16.1774 29.8782 16.2458C30.013 16.3371 30.0672 16.4728 30.041 16.653C30.023 16.7636 29.9746 16.8542 29.8957 16.9246C29.8236 16.9771 29.7447 17.0076 29.6591 17.0162C29.6209 17.021 29.5995 17.0231 29.5949 17.0226L29.6719 17.1446L29.6781 17.1524C29.7782 17.2584 29.8799 17.2917 29.9833 17.2524C30.0625 17.2196 30.1612 17.1209 30.2796 16.9565C30.5041 16.6121 30.7779 15.954 31.1011 14.9821C31.3194 14.3362 31.5642 13.5477 31.8354 12.6166C31.8439 12.5848 31.9168 12.3491 32.054 11.9096L32.0923 11.7661C32.0928 11.7615 32.0693 11.7422 32.0217 11.7083C31.9392 11.6515 31.843 11.5718 31.733 11.4693C31.4827 11.2044 31.3205 10.8912 31.2462 10.5298C31.2082 10.3373 31.2016 10.1367 31.2266 9.92823C31.2515 9.71972 31.3052 9.5264 31.3877 9.34826C31.5371 9.04185 31.7275 8.80614 31.9587 8.64112C32.3099 8.37765 32.7104 8.25169 33.1602 8.26323C33.2117 8.26469 33.2398 8.26571 33.2444 8.26626L33.3308 8.01575C33.7997 6.69008 34.1944 5.63048 34.515 4.83696C34.8944 3.90478 35.2579 3.28324 35.6053 2.97232C35.7943 2.80694 35.9932 2.71561 36.2021 2.69831ZM33.1461 8.55764C33.1472 8.54837 33.1124 8.54421 33.0418 8.54516C32.5944 8.55271 32.2139 8.72806 31.9002 9.07121C31.8893 9.08401 31.8784 9.0968 31.8674 9.10959C31.719 9.28922 31.6095 9.49702 31.539 9.73298C31.5033 9.8744 31.485 10.0273 31.4841 10.1917C31.503 10.7016 31.7121 11.1143 32.1114 11.43C32.1549 11.4587 32.179 11.4734 32.1837 11.4739L32.2648 11.2087C32.394 10.7965 32.5279 10.3848 32.6664 9.97367C32.9673 9.06969 33.1272 8.59768 33.1461 8.55764ZM34.1256 8.91458L34.0419 8.84816L34.0096 8.82315L33.9397 9.05447C33.716 9.7844 33.4356 10.6344 33.0986 11.6046C33.0627 11.7084 33.0471 11.7606 33.0517 11.7611L33.1359 11.7642C33.6174 11.7466 34.0138 11.5567 34.3251 11.1944C34.4735 11.0148 34.5829 10.807 34.6535 10.5711C34.6892 10.4296 34.7075 10.2767 34.7084 10.1123C34.6946 9.79578 34.6042 9.51002 34.4373 9.25504C34.3452 9.12181 34.2413 9.00833 34.1256 8.91458Z" fill="black"/>
<path fill-rule="evenodd" clip-rule="evenodd" d="M30.1268 21.4C28.1313 18.1532 25.0765 15.8553 21.4091 14.8719C17.7194 13.8821 13.6493 14.2747 9.94935 15.9767C6.07885 17.758 3.17168 20.7117 1.76319 24.2926C0.267511 28.0968 0.548918 32.3611 2.55652 36.2997C4.5156 40.1424 7.66766 42.9724 11.4344 44.2745C15.1843 45.5692 19.242 45.2988 23.169 43.4916C27.5569 41.4724 30.5857 38.4224 31.9281 34.6714C33.2635 30.9409 32.8421 26.6177 30.743 22.4982C30.5506 22.1215 30.3447 21.7546 30.1268 21.4ZM5.4264 34.9788C3.5 30 4.64733 26.9814 5.4264 25C6.32337 22.7187 8.28439 20.423 11.3984 18.9897C14.5124 17.5564 18.1875 17.6399 21.1925 18.4458C21.6534 18.5694 22.1533 18.7372 22.6695 18.9549L21 22.5C25.5909 24.4093 26.125 29.5 25 32.5C23.875 35.5 19.3456 39.1931 14 37L12.194 40.8609C12.1499 40.8471 12.1053 40.8352 12.0606 40.8233C12.0029 40.8079 11.9452 40.7925 11.8887 40.773C9.42169 39.9209 7.38745 38.2525 5.95327 35.9189C5.76747 35.6166 5.59185 35.3032 5.4264 34.9788Z" fill="black"/>
<path d="M14.1347 36.5934C14.7768 35.2507 15.613 33.5017 17.4366 29.6879C19.2602 25.8741 19.913 24.5088 20.7385 22.7824C16.9247 20.9588 12.3547 22.5722 10.5311 26.386C8.70751 30.1998 10.3209 34.7698 14.1347 36.5934Z" fill="black"/>
</svg>
