<svg width="282" height="274" viewBox="0 0 282 274" fill="none" xmlns="http://www.w3.org/2000/svg">
<g clip-path="url(#clip0_39_2)">
<path d="M126.048 204.364L128.959 197.077C128.959 197.077 109.302 182.528 111.847 160.447L111.841 160.45C112.329 158.239 112.751 156.003 113.102 153.744L113.39 154.311C113.39 154.311 120.98 142.582 141.252 141.719V136.976V132.231C120.98 131.368 113.39 119.639 113.39 119.639L113.102 120.206C112.751 117.947 112.329 115.711 111.841 113.5L111.847 113.503C109.303 91.4229 128.959 76.8729 128.959 76.8729L126.048 69.5859L100.686 84.1589L100.684 84.1649L60 108.573C64.47 117.058 67.0119 126.718 67.0119 136.975C67.0119 147.232 64.47 156.891 60 165.377L100.684 189.785L100.686 189.791L126.048 204.364Z" fill="url(#paint0_linear_39_2)"/>
<path d="M165.541 242.885C192.874 236.9 216.341 220.605 231.676 198.28L229.056 196.775L229.013 196.672L190.912 173.813C179.769 188.514 162.128 198.015 142.258 198.015C111.451 198.015 85.9888 175.189 81.8268 145.529H120.179C123.643 154.756 132.542 161.323 142.978 161.323C156.426 161.323 167.327 150.422 167.327 136.974C167.327 123.527 156.426 112.625 142.978 112.625C132.542 112.625 123.642 119.193 120.179 128.419H81.8268C85.9888 98.7596 111.451 75.9336 142.258 75.9336C162.127 75.9336 179.768 85.4346 190.911 100.135L229.013 77.2756L229.053 77.1786L231.676 75.6676C216.341 53.3426 192.874 37.0476 165.541 31.0626L153.268 -4.06641L145.504 -4.06641H137.74L125.92 29.7676C109.94 32.1826 95.1068 38.0876 82.2148 46.6776L51.2638 31.7546L45.7738 37.2446L40.2838 42.7346L54.8108 72.8626C45.1048 86.0786 38.3228 101.573 35.4178 118.397L4.46378 129.211V136.975V144.739L35.4178 155.553C38.3228 172.377 45.1048 187.872 54.8108 201.087L40.2838 231.215L45.7738 236.705L51.2638 242.195L82.2158 227.271C95.1078 235.861 109.941 241.766 125.921 244.181L137.741 278.015H145.505H153.269L165.541 242.885Z" fill="#141214"/>
</g>
<defs>
<linearGradient id="paint0_linear_39_2" x1="163.896" y1="136.976" x2="44.4037" y2="136.976" gradientUnits="userSpaceOnUse">
<stop stop-color="#F6E823"/>
<stop offset="1" stop-color="#FF7031"/>
</linearGradient>
<clipPath id="clip0_39_2">
<rect width="282" height="274" fill="white"/>
</clipPath>
</defs>
</svg>
